<?xml version="1.0" encoding="utf-8" standalone="yes"?>
<!DOCTYPE svg PUBLIC "-//W3C//DTD SVG 1.1//EN" "http://www.w3.org/Graphics/SVG/1.1/DTD/svg11.dtd">
<svg style="fill:none;stroke:none;fill-rule:evenodd;clip-rule:evenodd;stroke-linecap:round;stroke-linejoin:round;stroke-miterlimit:1.5;" version="1.1" xmlns="http://www.w3.org/2000/svg" xmlns:xlink="http://www.w3.org/1999/xlink" width="541" height="523" viewBox="0 0 541 523"><style class="text-font-style fontImports" data-font-family="Shantell Sans">@import url(https://fonts.googleapis.com/css2?family=Shantell+Sans:wght@300..800&amp;amp;display=block);</style><g id="items" style="isolation: isolate"><g id="blend" style="mix-blend-mode: normal"><g id="g-root-sy_6_cu_1qf31v81c2tiiz-fill" data-item-order="-48257" transform="translate(14.52862548828125, 401.79443359375)"><g id="sy_6_cu_1qf31v81c2tiiz-fill-merged" stroke="none" fill="#ffd7ef" fill-opacity="1"><g><path d="M143.8 8.706L135.9 -1.194L116.2 6.206L128.2 21.206L143.8 8.706 M116.2 6.206L118 52.206L137.8 46.406L135.9 -1.194L116.2 6.206 M137.8 46.406L126.3 26.906L104.2 28.706L118 52.206L137.8 46.406 M104.2 28.706L93.5 56.706L115.1 56.006L126.3 26.906L104.2 28.706 M115.1 56.006L105.6 35.106L83.4 34.806L93.5 56.706L115.1 56.006 M83.4 34.806L72.4 56.906L93.9 58.606L105.6 35.106L83.4 34.806 M93.9 58.606L87.8 39.906L66.7 39.506L72.4 56.906L93.9 58.606 M66.7 39.506L56.1 68.806L78.9 64.706L87.8 39.906L66.7 39.506 M78.9 64.706L63.2 46.206L39.6 49.406L56.1 68.806L78.9 64.706 M39.6 49.406L32.1 65.606L55 63.906L63.2 46.206L39.6 49.406 M55 63.906L47.5 52.706L21.9 50.406L32.1 65.606L55 63.906 M21.9 50.406L10.4 62.306L35 65.706L47.5 52.706L21.9 50.406 M35 65.706L27 50.906L9.4 60.306L10.4 62.306L35 65.706" fill-rule="nonzero"></path></g></g></g><g id="g-root-sy_6_cu_1_v2zepg1c2uxvo-fill" data-item-order="-48255" transform="translate(17.224334716796875, 395.52197265625)"><g id="sy_6_cu_1_v2zepg1c2uxvo-fill-merged" stroke="none" fill="#ffd7ef" fill-opacity="1"><g><path d="M4.804 24.678L4.904 26.078L26.404 35.378L24.604 21.878L4.804 24.678 M26.404 35.378L50.804 18.178L25.504 11.478L4.904 26.078L26.404 35.378 M25.504 11.478L32.204 25.378L56.904 30.878L50.804 18.178L25.504 11.478 M56.904 30.878L70.804 19.278L50.204 10.378L32.204 25.378L56.904 30.878 M50.204 10.378L51.304 28.278L71.904 36.278L70.804 19.278L50.204 10.378 M71.904 36.278L93.304 15.578L72.404 7.978L51.304 28.278L71.904 36.278 M72.404 7.978L74.204 25.678L95.304 35.278L93.304 15.578L72.404 7.978 M95.304 35.278L120.104 17.578L98.404 8.478L74.204 25.678L95.304 35.278 M98.404 8.478L103.304 38.978L123.104 35.778L120.104 17.578L98.404 8.478" fill-rule="nonzero"></path></g></g></g><g id="g-root-sy_5_cu_m7cegk1c2uyod-fill" data-item-order="-48251" transform="translate(14.52862548828125, 344.77020263671875)"><g id="sy_5_cu_m7cegk1c2uyod-fill-merged" stroke="none" fill="#e7e1ff" fill-opacity="1"><g><path d="M142.4 14.73L142.1 5.53L122 4.03L122.4 15.53L142.4 14.73 M122 4.03L113.6 48.03L134.4 46.03L142.1 5.53L122 4.03 M134.4 46.03L127.5 29.13L105.9 28.93L113.6 48.03L134.4 46.03 M105.9 28.93L94 56.73L114.8 58.83L127.5 29.13L105.9 28.93 M114.8 58.83L111.6 42.83L90.2 38.13L94 56.73L114.8 58.83 M90.2 38.13L70.9 64.03L94.3 66.03L111.6 42.83L90.2 38.13 M94.3 66.03L80.9 39.03L59.6 41.23L70.9 64.03L94.3 66.03 M59.6 41.23L54 62.63L75.6 59.03L80.9 39.03L59.6 41.23 M75.6 59.03L67.3 46.43L43.2 46.13L54 62.63L75.6 59.03 M43.2 46.13L28.7 67.33L51 70.23L67.3 46.43L43.2 46.13 M51 70.23L42.6 46.93L20.4 44.43L28.7 67.33L51 70.23 M20.4 44.43L4.9 68.53L29.2 67.73L42.6 46.93L20.4 44.43 M29.2 67.73L19.4 54.53L3.4 66.43L4.9 68.53L29.2 67.73" fill-rule="nonzero"></path></g></g></g><g id="g-root-sy_5_cu_1_hs5df81c2uwau-fill" data-item-order="-48249" transform="translate(17.224334716796875, 338.4970703125)"><g id="sy_5_cu_1_hs5df81c2uwau-fill-merged" stroke="none" fill="#e7e1ff" fill-opacity="1"><g><path d="M11.104 30.503L8.304 25.303L34.604 32.003L28.704 21.003L11.104 30.503 M34.604 32.003L49.804 22.203L28.004 12.503L8.304 25.303L34.604 32.003 M28.004 12.503L29.904 24.303L51.504 33.103L49.804 22.203L28.004 12.503 M51.504 33.103L68.804 20.003L47.404 11.103L29.904 24.303L51.504 33.103 M47.404 11.103L48.604 20.103L70.404 31.903L68.804 20.003L47.404 11.103 M70.404 31.903L91.004 22.003L70.504 9.703L48.604 20.103L70.404 31.903 M70.504 9.703L71.404 30.903L91.804 38.703L91.004 22.003L70.504 9.703 M91.804 38.703L113.204 16.803L90.404 11.503L71.404 30.903L91.804 38.703 M90.404 11.503L100.204 41.203L119.204 35.003L113.204 16.803L90.404 11.503" fill-rule="nonzero"></path></g></g></g><g id="g-root-sy_4_cu_8wid6c1c2ux3j-fill" data-item-order="-48245" transform="translate(14.52862548828125, 287.74609375)"><g id="sy_4_cu_8wid6c1c2ux3j-fill-merged" stroke="none" fill="#d1f4ff" fill-opacity="1"><g><path d="M135.1 2.454L132.8 1.354L113.8 14.354L126.4 20.454L135.1 2.454 M113.8 14.354L116.9 49.854L136.7 46.354L132.8 1.354L113.8 14.354 M136.7 46.354L133 32.654L111.2 28.654L116.9 49.854L136.7 46.354 M111.2 28.654L91.7 55.854L115 57.654L133 32.654L111.2 28.654 M115 57.654L104.2 36.454L82.7 38.254L91.7 55.854L115 57.654 M82.7 38.254L74.7 63.954L96.5 61.354L104.2 36.454L82.7 38.254 M96.5 61.354L82.9 38.554L60.8 40.554L74.7 63.954L96.5 61.354 M60.8 40.554L50.5 67.954L71.3 69.554L82.9 38.554L60.8 40.554 M71.3 69.554L66.1 43.954L44.7 39.454L50.5 67.954L71.3 69.554 M44.7 39.454L28.9 61.854L50.6 65.854L66.1 43.954L44.7 39.454 M50.6 65.854L46 47.654L24.8 45.554L28.9 61.854L50.6 65.854 M24.8 45.554L11.3 73.754L35.6 69.354L46 47.654L24.8 45.554 M35.6 69.354L17.6 52.154L3.8 66.654L11.3 73.754L35.6 69.354" fill-rule="nonzero"></path></g></g></g><g id="g-root-sy_4_cu_1_vcxg1c2uyo0-fill" data-item-order="-48243" transform="translate(17.224334716796875, 281.4736328125)"><g id="sy_4_cu_1_vcxg1c2uyo0-fill-merged" stroke="none" fill="#d1f4ff" fill-opacity="1"><g><path d="M10.304 25.226L11.304 29.226L34.204 38.926L29.704 20.526L10.304 25.226 M34.204 38.926L53.404 27.526L36.504 14.326L11.304 29.226L34.204 38.926 M36.504 14.326L33.704 23.626L50.204 38.326L53.404 27.526L36.504 14.326 M50.204 38.326L75.504 27.326L52.104 15.626L33.704 23.626L50.204 38.326 M52.104 15.626L53.604 21.726L75.904 29.426L75.504 27.326L52.104 15.626 M75.904 29.426L91.804 16.726L69.904 8.626L53.604 21.726L75.904 29.426 M69.904 8.626L73.804 29.626L96.004 39.226L91.804 16.726L69.904 8.626 M96.004 39.226L120.304 23.526L95.804 15.426L73.804 29.626L96.004 39.226 M95.804 15.426L103.404 35.326L122.104 28.126L120.304 23.526L95.804 15.426" fill-rule="nonzero"></path></g></g></g><g id="g-root-sy_3_cu_1q6yvqs1c2uw3t-fill" data-item-order="-48239" transform="translate(14.52862548828125, 230.720703125)"><g id="sy_3_cu_1q6yvqs1c2uw3t-fill-merged" stroke="none" fill="#e9ffb9" fill-opacity="1"><g><path d="M145.5 22.479L136.8 3.079L116.4 6.679L127.3 30.679L145.5 22.479 M116.4 6.679L113.2 49.379L133.6 44.779L136.8 3.079L116.4 6.679 M133.6 44.779L126.1 31.579L104.7 34.379L113.2 49.379L133.6 44.779 M104.7 34.379L98.5 58.679L119.6 57.179L126.1 31.579L104.7 34.379 M119.6 57.179L109.5 32.879L87.6 32.179L98.5 58.679L119.6 57.179 M87.6 32.179L73.2 61.579L94.2 64.179L109.5 32.879L87.6 32.179 M94.2 64.179L88.6 37.779L67.3 34.179L73.2 61.579L94.2 64.179 M67.3 34.179L50 62.579L72.2 64.579L88.6 37.779L67.3 34.179 M72.2 64.579L63.5 42.079L42.8 43.879L50 62.579L72.2 64.579 M42.8 43.879L37.6 69.979L58.9 65.579L63.5 42.079L42.8 43.879 M58.9 65.579L43.1 42.879L21.2 46.379L37.6 69.979L58.9 65.579 M21.2 46.379L14.2 69.579L36.2 65.679L43.1 42.879L21.2 46.379 M36.2 65.679L23.7 48.879L7.6 60.779L14.2 69.579L36.2 65.679" fill-rule="nonzero"></path></g></g></g><g id="g-root-sy_3_cu_1_1lr5dmc1c2uww2-fill" data-item-order="-48237" transform="translate(17.224334716796875, 224.4482421875)"><g id="sy_3_cu_1_1lr5dmc1c2uww2-fill-merged" stroke="none" fill="#e9ffb9" fill-opacity="1"><g><path d="M9.504 13.552L11.704 14.152L28.104 27.352L50.404 29.852L39.304 9.552L29.104 9.352L29.004 8.852L9.504 13.552 M39.304 9.552L31.104 23.252L45.104 38.652L50.404 29.852L39.304 9.552 M45.104 38.652L74.204 24.452L49.204 14.452L31.104 23.252L45.104 38.652 M49.204 14.452L54.504 28.752L78.104 35.052L74.204 24.452L49.204 14.452 M78.104 35.052L95.504 20.352L74.304 12.052L54.504 28.752L78.104 35.052 M74.304 12.052L77.004 32.852L98.304 41.452L95.504 20.352L74.304 12.052 M98.304 41.452L117.804 25.852L99.704 14.752L77.004 32.852L98.304 41.452 M99.704 14.752L96.004 32.152L115.504 36.352L117.804 25.852L99.704 14.752 M13.904 19.552L11.904 26.452L31.204 31.852L33.104 24.952L13.904 19.552" fill-rule="nonzero"></path></g></g></g><g id="g-root-sy_2_cu_1cviddg1c2uxor-fill" data-item-order="-48233" transform="translate(14.52862548828125, 173.6962890625)"><g id="sy_2_cu_1cviddg1c2uxor-fill-merged" stroke="none" fill="#c8ffe5" fill-opacity="1"><g><path d="M138.5 12.704L139.3 7.204L119.5 4.304L118.7 9.704L138.5 12.704 M119.5 4.304L113.4 46.804L134.2 42.704L139.3 7.204L119.5 4.304 M134.2 42.704L124.8 26.704L103.4 29.604L113.4 46.804L134.2 42.704 M103.4 29.604L95.9 57.604L117.7 53.204L124.8 26.704L103.4 29.604 M117.7 53.204L106.1 38.104L82.6 40.304L95.9 57.604L117.7 53.204 M82.6 40.304L72.9 59.704L96.2 57.804L106.1 38.104L82.6 40.304 M96.2 57.804L80.6 36.304L58.8 40.304L72.9 59.704L96.2 57.804 M58.8 40.304L52 65.204L73.6 62.204L80.6 36.304L58.8 40.304 M73.6 62.204L61.1 41.704L40.1 45.604L52 65.204L73.6 62.204 M40.1 45.604L35.2 74.004L56.1 70.604L61.1 41.704L40.1 45.604 M56.1 70.604L40.3 41.504L19.1 44.304L35.2 74.004L56.1 70.604 M19.1 44.304L12.5 71.804L33.2 71.504L40.3 41.504L19.1 44.304 M33.2 71.504L28.4 54.004L9.1 59.304L12.5 71.804L33.2 71.504" fill-rule="nonzero"></path></g></g></g><g id="g-root-sy_2_cu_1_18fov901c2uyh0-fill" data-item-order="-48231" transform="translate(17.224334716796875, 167.4228515625)"><g id="sy_2_cu_1_18fov901c2uyh0-fill-merged" stroke="none" fill="#c8ffe5" fill-opacity="1"><g><path d="M10.504 13.177L10.404 11.077L31.004 27.877L30.504 12.477L10.504 13.177 M31.004 27.877L50.004 24.677L29.604 7.877L10.404 11.077L31.004 27.877 M29.604 7.877L30.004 24.277L50.304 35.377L50.004 24.677L29.604 7.877 M50.304 35.377L73.304 21.577L50.804 11.777L30.004 24.277L50.304 35.377 M50.804 11.777L53.504 24.177L76.204 34.977L73.304 21.577L50.804 11.777 M76.204 34.977L97.704 23.877L80.104 10.477L53.504 24.177L76.204 34.977 M80.104 10.477L76.404 28.177L94.804 38.177L97.704 23.877L80.104 10.477 M94.804 38.177L111.904 21.277L92.504 12.277L76.404 28.177L94.804 38.177 M92.504 12.277L90.704 35.577L110.604 37.177L111.904 21.277L92.504 12.277 M13.104 20.377L9.204 30.777L28.004 37.777L31.804 27.277L13.104 20.377" fill-rule="nonzero"></path></g></g></g><g id="g-root-sy_1_cu_zkoc381c2uw3x-fill" data-item-order="-48227" transform="translate(14.52862548828125, 116.671875)"><g id="sy_1_cu_zkoc381c2uw3x-fill-merged" stroke="none" fill="#edf4ff" fill-opacity="1"><g><path d="M143.3 14.428L134.1 -0.672L114.2 5.128L126.2 24.828L143.3 14.428 M114.2 5.128L115.2 53.928L135.1 49.928L134.1 -0.672L114.2 5.128 M135.1 49.928L125.1 24.528L104.5 26.928L115.2 53.928L135.1 49.928 M104.5 26.928L99.7 60.728L120.5 56.328L125.1 24.528L104.5 26.928 M120.5 56.328L106.2 33.528L83.6 35.128L99.7 60.728L120.5 56.328 M83.6 35.128L72.3 59.828L95 58.228L106.2 33.528L83.6 35.128 M95 58.228L85.1 42.628L61.3 42.528L72.3 59.828L95 58.228 M61.3 42.528L48.8 62.128L69.4 66.928L85.1 42.628L61.3 42.528 M69.4 66.928L66.6 41.128L46.2 37.728L48.8 62.128L69.4 66.928 M46.2 37.728L30.6 70.928L52.9 70.528L66.6 41.128L46.2 37.728 M52.9 70.528L42 49.228L19 48.128L30.6 70.928L52.9 70.528 M19 48.128L5.6 69.028L32.4 64.228L42 49.228L19 48.128 M32.4 64.228L19.6 54.528L7.6 70.528L5.6 69.028L32.4 64.228" fill-rule="nonzero"></path></g></g></g><g id="g-root-sy_1_cu_1_zkoc381c2uw3y-fill" data-item-order="-48225" transform="translate(14.565521240234375, 98)"><g id="sy_1_cu_1_zkoc381c2uw3y-fill-merged" stroke="none" fill="#edf4ff" fill-opacity="1"><g><path d="M129.263 44.5L132.463 35.5L115.463 23.8L110.463 37.7L129.263 44.5 M115.463 23.8L89.663 45.9L110.463 54.5L132.463 35.5L115.463 23.8 M110.463 54.5L108.063 23.8L87.463 17.2L89.663 45.9L110.463 54.5 M87.463 17.2L70.563 37.4L89.663 45.8L108.063 23.8L87.463 17.2 M89.663 45.8L92.463 23.9L73.663 13.8L70.563 37.4L89.663 45.8 M73.663 13.8L48.763 35.2L66.963 45.9L92.463 23.9L73.663 13.8 M66.963 45.9L72.363 19.7L54.363 8L48.763 35.2L66.963 45.9 M54.363 8L25.963 28.2L43.363 40.3L72.363 19.7L54.363 8 M43.363 40.3L48.863 19.9L31.563 7.2L25.963 28.2L43.363 40.3 M31.563 7.2L9.063 21.6L29.863 32L48.863 19.9L31.563 7.2 M29.863 32L28.763 16.1L8.763 17.5L9.063 21.6L29.863 32" fill-rule="nonzero"></path></g></g></g><g id="g-root-sy_1_Ellipse_v4utys1c2uww7-fill" data-item-order="-48223" transform="translate(14.528900146484375, 98.178955078125)"><g id="sy_1_Ellipse_v4utys1c2uww7-fill-merged" stroke="none" fill="#edf4ff" fill-opacity="1"><g><path d="M14.8 8.721L9 33.521L28.4 38.121L34.3 13.321L14.8 8.721" fill-rule="nonzero"></path></g></g></g><g id="g-root-tx_credenti_1lsebsk1c2uz2b-fill" data-item-order="0" transform="translate(230.528564453125, 242)"><g id="tx_credenti_1lsebsk1c2uz2b-fill-merged" stroke="none" fill="#484848" fill-opacity="1"><g><text style="font: 15px &quot;Shantell Sans&quot;, cursive; white-space: pre;" transform="translate(10, 22)" font-size="15px" font-family="'Shantell Sans', cursive"><tspan x="2" y="9.4" dominant-baseline="ideographic">Credentials Match</tspan></text></g></g></g><g id="g-root-ic_appr_1uua2wk1c2z4st-fill" data-item-order="0" transform="translate(182.528564453125, 236)"></g><g id="g-root-tx_phpcheck_18hkaic1c2uxhg-fill" data-item-order="0" transform="translate(230.528564453125, 182)"><g id="tx_phpcheck_18hkaic1c2uxhg-fill-merged" stroke="none" fill="#484848" fill-opacity="1"><g><text style="font: 15px &quot;Shantell Sans&quot;, cursive; white-space: pre;" transform="translate(10, 22)" font-size="15px" font-family="'Shantell Sans', cursive"><tspan x="2" y="9.4" dominant-baseline="ideographic">PHP Checks Credentials</tspan></text></g></g></g><g id="g-root-ic_1_1uo1c1g1c2xpts-fill" data-item-order="0" transform="translate(182.528564453125, 296)"></g><g id="g-root-tx_phpstart_1q87tx01c2uya2-fill" data-item-order="0" transform="translate(230.528564453125, 302)"><g id="tx_phpstart_1q87tx01c2uya2-fill-merged" stroke="none" fill="#484848" fill-opacity="1"><g><text style="font: 15px &quot;Shantell Sans&quot;, cursive; white-space: pre;" transform="translate(10, 22)" font-size="15px" font-family="'Shantell Sans', cursive"><tspan x="2" y="9.4" dominant-baseline="ideographic">PHP Starts Session</tspan></text></g></g></g><g id="g-root-ic_php_1lrrupg1c30lc9-fill" data-item-order="0" transform="translate(182.528564453125, 176)"></g><g id="g-root-tx_userente_zlxa9g1c2uya5-fill" data-item-order="0" transform="translate(230.528564453125, 122)"><g id="tx_userente_zlxa9g1c2uya5-fill-merged" stroke="none" fill="#484848" fill-opacity="1"><g><text style="font: 15px &quot;Shantell Sans&quot;, cursive; white-space: pre;" transform="translate(10, 22)" font-size="15px" font-family="'Shantell Sans', cursive"><tspan x="2" y="9.4" dominant-baseline="ideographic">User Enters Credentials</tspan></text></g></g></g><g id="g-root-ic_stac_4ikab81c2wb2f-fill" data-item-order="0" transform="translate(182.528564453125, 356)"></g><g id="g-root-tx_useridst_4ikab81c2uww9-fill" data-item-order="0" transform="translate(230.528564453125, 362)"><g id="tx_useridst_4ikab81c2uww9-fill-merged" stroke="none" fill="#484848" fill-opacity="1"><g><text style="font: 15px &quot;Shantell Sans&quot;, cursive; white-space: pre;" transform="translate(10, 22)" font-size="15px" font-family="'Shantell Sans', cursive"><tspan x="2" y="9.4" dominant-baseline="ideographic">User ID Stored</tspan></text></g></g></g><g id="g-root-ic_key_18it8ok1c30irp-fill" data-item-order="0" transform="translate(182.528564453125, 116)"></g><g id="g-root-tx_sessionc_qp1buc1c2uxog-fill" data-item-order="0" transform="translate(230.528564453125, 422)"><g id="tx_sessionc_qp1buc1c2uxog-fill-merged" stroke="none" fill="#484848" fill-opacity="1"><g><text style="font: 15px &quot;Shantell Sans&quot;, cursive; white-space: pre;" transform="translate(10, 22)" font-size="15px" font-family="'Shantell Sans', cursive"><tspan x="2" y="9.4" dominant-baseline="ideographic">Session Checked on Later Pages</tspan></text></g></g></g><g id="g-root-ic_page_mb38z81c2uwpb-fill" data-item-order="0" transform="translate(182.528564453125, 416)"></g><g id="g-root-tx_userauth_mb38z81c2uwpa-fill" data-item-order="0" transform="translate(122.528564453125, 38)"><g id="tx_userauth_mb38z81c2uwpa-fill-merged" stroke="none" fill="#484848" fill-opacity="1"><g><text style="font: bold 25px &quot;Shantell Sans&quot;, cursive; white-space: pre;" transform="translate(202, 28)" font-weight="bold" font-size="25px" font-family="'Shantell Sans', cursive"><tspan x="-185.79" y="16.2" dominant-baseline="ideographic">User Authentication Process</tspan></text></g></g></g><g id="g-root-sy_6_cu_1qf31v81c2tiiz-stroke" data-item-order="-48257" transform="translate(14.52862548828125, 401.79443359375)"><g id="sy_6_cu_1qf31v81c2tiiz-stroke" fill="none" stroke-linecap="round" stroke-linejoin="round" stroke-miterlimit="4" stroke="#484848" stroke-width="4" stroke-opacity="1"><g><path d="M 69.909747 39.6509C 98.397147 34.4164 126.544047 29.7108 127.336847 20.2322C 127.811147 14.562 122.845347 11.6633 118.677347 10C 125.553947 12.281 140.902647 20.2322 140.902647 31.5084C 140.902647 48.3752 123.999347 56.8124 75.229247 65.242C 48.104047 69.9303 31.437347 72.7948 21.745547 72.035C 13.703447 71.4046 10.381047 66.9868 10.036847 61.629C 9.471347 52.8286 15.502447 48.4288 21.745547 47.0136C 29.357947 45.288 48.711847 43.546 69.909747 39.6509ZM 69.899947 39.605566C 98.199947 33.605566 124.899947 29.405566 127.299947 20.205566C 128.799947 14.705566 122.399947 12.505566 118.699947 10.005566C 125.799947 11.605566 142.699947 20.405566 140.899947 31.505566C 139.499947 40.205566 136.599947 47.405566 124.899947 52.205566C 114.299947 56.605566 98.599947 61.305566 75.199947 65.205566C 48.099947 69.805566 31.499947 72.405566 21.699947 72.005566C 13.699947 71.705566 10.699947 67.005566 9.999947 61.605566C 8.999947 52.905566 15.699947 49.205566 21.699947 47.005566C 29.099947 44.305566 48.599947 43.005566 69.899947 39.605566"></path></g></g></g><g id="g-root-sy_6_cu_1_v2zepg1c2uxvo-stroke" data-item-order="-48255" transform="translate(17.224334716796875, 395.52197265625)"><g id="sy_6_cu_1_v2zepg1c2uxvo-stroke" fill="none" stroke-linecap="round" stroke-linejoin="round" stroke-miterlimit="4" stroke="#484848" stroke-width="4" stroke-opacity="1"><g><path d="M 38.0076 27.1771C 16.9757 24.0392 10.9029 18.5537 10 17.5313C 11.8743 19.5171 14.7922 20.8771 19.0033 21.2053C 28.7014 21.9611 45.379 19.1113 72.522 14.4469C 81.0593 12.9798 88.6207 11.5124 95.2864 10C 102.5445 12.184 110.3408 13.5695 117.3519 16.811C 120.3393 18.2371 124.8131 20.893 124.6859 26.0148C 124.5376 31.9893 114.6599 35.7537 102.0009 38.9452C 101.6757 38.8312 100.3044 38.2844 99.9973 38.1713C 92.3051 35.2781 65.1564 31.2276 38.0076 27.1771ZM 117.3519 16.811L 117.5995 16.9255M 38.004237 27.178027C 16.804237 25.978027 10.704237 18.678027 10.004237 17.578027C 12.304237 19.078027 15.004237 22.478027 19.004237 21.178027C 28.304237 18.278027 45.604237 20.278027 72.504237 14.478027C 81.004237 12.578027 88.504237 10.878027 95.304237 9.978027C 102.504237 12.178027 110.204237 13.878027 117.304237 16.778027C 120.204237 18.478027 125.304237 20.978027 124.704237 25.978027C 124.004237 31.978027 114.804237 36.278027 102.004237 38.978027C 101.704237 38.978027 100.304237 38.278027 100.004237 38.178027C 92.404237 34.978027 64.904237 32.478027 38.004237 27.178027M 117.304237 16.778027C 117.404237 16.878027 117.504237 16.878027 117.604237 16.878027"></path></g></g></g><g id="g-root-sy_5_cu_m7cegk1c2uyod-stroke" data-item-order="-48251" transform="translate(14.52862548828125, 344.77020263671875)"><g id="sy_5_cu_m7cegk1c2uyod-stroke" fill="none" stroke-linecap="round" stroke-linejoin="round" stroke-miterlimit="4" stroke="#484848" stroke-width="4" stroke-opacity="1"><g><path d="M 69.909747 39.6509C 98.397147 34.4164 126.544047 29.7108 127.336847 20.2322C 127.811147 14.562 122.845347 11.6633 118.677347 10C 125.553947 12.281 140.902647 20.2322 140.902647 31.5084C 140.902647 48.3752 123.999347 56.8124 75.229247 65.242C 48.104047 69.9303 31.437347 72.7948 21.745547 72.035C 13.703447 71.4046 10.381047 66.9868 10.036847 61.629C 9.471347 52.8286 15.502447 48.4288 21.745547 47.0136C 29.357947 45.288 48.711847 43.546 69.909747 39.6509ZM 69.899947 39.629797C 98.499947 35.029797 126.299947 29.729797 127.299947 20.229797C 127.999947 14.529797 122.899947 11.529797 118.699947 10.029797C 124.899947 13.729797 141.099947 20.229797 140.899947 31.529797C 140.599947 48.329797 123.899947 56.029797 75.199947 65.229797C 48.199947 70.329797 31.399947 72.929797 21.699947 72.029797C 13.699947 71.329797 10.999947 66.929797 9.999947 61.629797C 8.399947 52.929797 15.299947 46.929797 21.699947 47.029797C 29.599947 47.129797 48.899947 44.429797 69.899947 39.629797"></path></g></g></g><g id="g-root-sy_5_cu_1_hs5df81c2uwau-stroke" data-item-order="-48249" transform="translate(17.224334716796875, 338.4970703125)"><g id="sy_5_cu_1_hs5df81c2uwau-stroke" fill="none" stroke-linecap="round" stroke-linejoin="round" stroke-miterlimit="4" stroke="#484848" stroke-width="4" stroke-opacity="1"><g><path d="M 38.0076 27.1771C 16.9757 24.0392 10.9029 18.5537 10 17.5313C 11.8743 19.5171 14.7922 20.8771 19.0033 21.2053C 28.7014 21.9611 45.379 19.1113 72.522 14.4469C 81.0593 12.9798 88.6207 11.5124 95.2864 10C 102.5445 12.184 110.3408 13.5695 117.3519 16.811C 120.3393 18.2371 124.8131 20.893 124.6859 26.0148C 124.5376 31.9893 114.6599 35.7537 102.0009 38.9452C 101.6757 38.8312 100.3044 38.2844 99.9973 38.1713C 92.3051 35.2781 65.1564 31.2276 38.0076 27.1771ZM 117.3519 16.811L 117.5995 16.9255M 38.004237 27.20293C 16.804237 25.50293 10.904237 18.60293 10.004237 17.50293C 11.104237 20.00293 14.904237 20.30293 19.004237 21.20293C 28.504237 23.20293 45.604237 20.30293 72.504237 14.40293C 81.004237 12.60293 88.804237 12.10293 95.304237 10.00293C 102.704237 11.50293 109.904237 14.70293 117.304237 16.80293C 120.604237 17.60293 124.704237 20.90293 124.704237 26.00293C 124.704237 32.00293 114.204237 34.20293 102.004237 38.90293C 101.704237 38.90293 100.304237 38.30293 100.004237 38.20293C 92.704237 34.30293 65.104237 31.90293 38.004237 27.20293M 117.304237 16.80293C 117.404237 16.90293 117.504237 16.90293 117.604237 16.90293"></path></g></g></g><g id="g-root-sy_4_cu_8wid6c1c2ux3j-stroke" data-item-order="-48245" transform="translate(14.52862548828125, 287.74609375)"><g id="sy_4_cu_8wid6c1c2ux3j-stroke" fill="none" stroke-linecap="round" stroke-linejoin="round" stroke-miterlimit="4" stroke="#484848" stroke-width="4" stroke-opacity="1"><g><path d="M 69.909747 39.6509C 98.397147 34.4164 126.544047 29.7108 127.336847 20.2322C 127.811147 14.562 122.845347 11.6633 118.677347 10C 125.553947 12.281 140.902647 20.2322 140.902647 31.5084C 140.902647 48.3752 123.999347 56.8124 75.229247 65.242C 48.104047 69.9303 31.437347 72.7948 21.745547 72.035C 13.703447 71.4046 10.381047 66.9868 10.036847 61.629C 9.471347 52.8286 15.502447 48.4288 21.745547 47.0136C 29.357947 45.288 48.711847 43.546 69.909747 39.6509ZM 69.899947 39.653906C 98.699947 36.153906 127.699947 29.753906 127.299947 20.253906C 127.099947 14.553906 123.099947 10.953906 118.699947 9.953906C 125.699947 11.853906 140.399947 20.253906 140.899947 31.553906C 141.699947 48.353906 123.899947 56.453906 75.199947 65.253906C 48.099947 70.153906 31.199947 74.353906 21.699947 72.053906C 13.899947 70.153906 11.599947 66.753906 9.999947 61.653906C 7.499947 53.153906 15.899947 49.653906 21.699947 47.053906C 28.899947 43.853906 48.599947 42.553906 69.899947 39.653906"></path></g></g></g><g id="g-root-sy_4_cu_1_vcxg1c2uyo0-stroke" data-item-order="-48243" transform="translate(17.224334716796875, 281.4736328125)"><g id="sy_4_cu_1_vcxg1c2uyo0-stroke" fill="none" stroke-linecap="round" stroke-linejoin="round" stroke-miterlimit="4" stroke="#484848" stroke-width="4" stroke-opacity="1"><g><path d="M 38.0076 27.1771C 16.9757 24.0392 10.9029 18.5537 10 17.5313C 11.8743 19.5171 14.7922 20.8771 19.0033 21.2053C 28.7014 21.9611 45.379 19.1113 72.522 14.4469C 81.0593 12.9798 88.6207 11.5124 95.2864 10C 102.5445 12.184 110.3408 13.5695 117.3519 16.811C 120.3393 18.2371 124.8131 20.893 124.6859 26.0148C 124.5376 31.9893 114.6599 35.7537 102.0009 38.9452C 101.6757 38.8312 100.3044 38.2844 99.9973 38.1713C 92.3051 35.2781 65.1564 31.2276 38.0076 27.1771ZM 117.3519 16.811L 117.5995 16.9255M 38.004237 27.226367C 16.904237 24.826367 10.904237 18.626367 10.004237 17.526367C 11.404237 19.826367 14.904237 20.126367 19.004237 21.226367C 28.404237 23.626367 45.204237 17.826367 72.504237 14.426367C 81.104237 13.426367 88.704237 11.726367 95.304237 10.026367C 101.804237 13.826367 111.104237 12.226367 117.304237 16.826367C 120.104237 18.626367 124.704237 20.926367 124.704237 26.026367C 124.604237 32.026367 114.704237 35.826367 102.004237 38.926367C 101.704237 38.826367 100.204237 38.426367 100.004237 38.126367C 93.604237 33.026367 65.404237 29.526367 38.004237 27.226367M 117.304237 16.826367C 117.404237 16.826367 117.504237 16.926367 117.604237 16.926367"></path></g></g></g><g id="g-root-sy_3_cu_1q6yvqs1c2uw3t-stroke" data-item-order="-48239" transform="translate(14.52862548828125, 230.720703125)"><g id="sy_3_cu_1q6yvqs1c2uw3t-stroke" fill="none" stroke-linecap="round" stroke-linejoin="round" stroke-miterlimit="4" stroke="#484848" stroke-width="4" stroke-opacity="1"><g><path d="M 69.909747 39.6509C 98.397147 34.4164 126.544047 29.7108 127.336847 20.2322C 127.811147 14.562 122.845347 11.6633 118.677347 10C 125.553947 12.281 140.902647 20.2322 140.902647 31.5084C 140.902647 48.3752 123.999347 56.8124 75.229247 65.242C 48.104047 69.9303 31.437347 72.7948 21.745547 72.035C 13.703447 71.4046 10.381047 66.9868 10.036847 61.629C 9.471347 52.8286 15.502447 48.4288 21.745547 47.0136C 29.357947 45.288 48.711847 43.546 69.909747 39.6509ZM 69.899947 39.679297C 98.599947 35.479297 126.399947 29.679297 127.299947 20.279297C 127.899947 14.579297 123.099947 10.579297 118.699947 9.979297C 125.599947 11.979297 141.099947 20.279297 140.899947 31.479297C 140.499947 48.379297 123.799947 55.679297 75.199947 65.279297C 48.199947 70.579297 31.499947 72.279297 21.699947 72.079297C 13.699947 71.879297 8.799947 66.879297 9.999947 61.579297C 12.099947 53.079297 15.299947 46.979297 21.699947 46.979297C 29.599947 47.079297 48.699947 43.679297 69.899947 39.679297"></path></g></g></g><g id="g-root-sy_3_cu_1_1lr5dmc1c2uww2-stroke" data-item-order="-48237" transform="translate(17.224334716796875, 224.4482421875)"><g id="sy_3_cu_1_1lr5dmc1c2uww2-stroke" fill="none" stroke-linecap="round" stroke-linejoin="round" stroke-miterlimit="4" stroke="#484848" stroke-width="4" stroke-opacity="1"><g><path d="M 38.0076 27.1771C 16.9757 24.0392 10.9029 18.5537 10 17.5313C 11.8743 19.5171 14.7922 20.8771 19.0033 21.2053C 28.7014 21.9611 45.379 19.1113 72.522 14.4469C 81.0593 12.9798 88.6207 11.5124 95.2864 10C 102.5445 12.184 110.3408 13.5695 117.3519 16.811C 120.3393 18.2371 124.8131 20.893 124.6859 26.0148C 124.5376 31.9893 114.6599 35.7537 102.0009 38.9452C 101.6757 38.8312 100.3044 38.2844 99.9973 38.1713C 92.3051 35.2781 65.1564 31.2276 38.0076 27.1771ZM 117.3519 16.811L 117.5995 16.9255M 38.004237 27.151758C 16.904237 24.951758 10.604237 18.751758 10.004237 17.551758C 11.504237 19.851758 14.804237 20.851758 19.004237 21.251758C 28.704237 22.151758 45.104237 17.151758 72.504237 14.451758C 81.104237 13.551758 89.004237 12.751758 95.304237 9.951758C 102.204237 13.151758 110.004237 14.351758 117.304237 16.851758C 119.804237 19.051758 125.704237 20.951758 124.704237 26.051758C 123.504237 31.851758 114.804237 36.251758 102.004237 38.951758C 101.704237 38.751758 100.304237 38.151758 100.004237 38.151758C 91.804237 38.451758 65.004237 31.951758 38.004237 27.151758M 117.304237 16.851758C 117.404237 16.851758 117.504237 16.851758 117.604237 16.951758"></path></g></g></g><g id="g-root-sy_2_cu_1cviddg1c2uxor-stroke" data-item-order="-48233" transform="translate(14.52862548828125, 173.6962890625)"><g id="sy_2_cu_1cviddg1c2uxor-stroke" fill="none" stroke-linecap="round" stroke-linejoin="round" stroke-miterlimit="4" stroke="#484848" stroke-width="4" stroke-opacity="1"><g><path d="M 69.909747 39.6509C 98.397147 34.4164 126.544047 29.7108 127.336847 20.2322C 127.811147 14.562 122.845347 11.6633 118.677347 10C 125.553947 12.281 140.902647 20.2322 140.902647 31.5084C 140.902647 48.3752 123.999347 56.8124 75.229247 65.242C 48.104047 69.9303 31.437347 72.7948 21.745547 72.035C 13.703447 71.4046 10.381047 66.9868 10.036847 61.629C 9.471347 52.8286 15.502447 48.4288 21.745547 47.0136C 29.357947 45.288 48.711847 43.546 69.909747 39.6509ZM 69.899947 39.603711C 83.299947 38.703711 96.299947 35.103711 106.599947 32.203711C 118.499947 28.803711 127.599947 25.303711 127.299947 20.203711C 126.999947 14.503711 123.099947 10.603711 118.699947 10.003711C 125.899947 10.903711 141.399947 20.203711 140.899947 31.503711C 140.599947 39.403711 137.099947 45.203711 128.199947 50.503711C 118.199947 56.503711 101.199947 61.503711 75.199947 65.203711C 47.999947 69.203711 31.499947 72.403711 21.699947 72.003711C 13.699947 71.703711 9.999947 67.003711 9.999947 61.603711C 10.099947 52.803711 15.699947 49.003711 21.699947 47.003711C 29.199947 44.603711 48.899947 44.403711 69.899947 39.603711"></path></g></g></g><g id="g-root-sy_2_cu_1_18fov901c2uyh0-stroke" data-item-order="-48231" transform="translate(17.224334716796875, 167.4228515625)"><g id="sy_2_cu_1_18fov901c2uyh0-stroke" fill="none" stroke-linecap="round" stroke-linejoin="round" stroke-miterlimit="4" stroke="#484848" stroke-width="4" stroke-opacity="1"><g><path d="M 38.0076 27.1771C 16.9757 24.0392 10.9029 18.5537 10 17.5313C 11.8743 19.5171 14.7922 20.8771 19.0033 21.2053C 28.7014 21.9611 45.379 19.1113 72.522 14.4469C 81.0593 12.9798 88.6207 11.5124 95.2864 10C 102.5445 12.184 110.3408 13.5695 117.3519 16.811C 120.3393 18.2371 124.8131 20.893 124.6859 26.0148C 124.5376 31.9893 114.6599 35.7537 102.0009 38.9452C 101.6757 38.8312 100.3044 38.2844 99.9973 38.1713C 92.3051 35.2781 65.1564 31.2276 38.0076 27.1771ZM 117.3519 16.811L 117.5995 16.9255M 38.004237 27.177148C 17.004237 23.777148 10.504237 18.777148 10.004237 17.577148C 11.604237 19.777148 14.804237 20.777148 19.004237 21.177148C 28.704237 22.077148 45.404237 19.477148 72.504237 14.477148C 81.004237 12.877148 88.704237 11.877148 95.304237 9.977148C 102.204237 13.177148 110.804237 12.777148 117.304237 16.777148C 120.404237 18.077148 125.804237 20.977148 124.704237 25.977148C 123.404237 31.877148 114.404237 34.977148 102.004237 38.977148C 101.704237 38.777148 100.304237 38.177148 100.004237 38.177148C 91.804237 37.477148 65.204237 30.477148 38.004237 27.177148M 117.304237 16.777148C 117.404237 16.877148 117.504237 16.877148 117.604237 16.877148"></path></g></g></g><g id="g-root-sy_1_cu_zkoc381c2uw3x-stroke" data-item-order="-48227" transform="translate(14.52862548828125, 116.671875)"><g id="sy_1_cu_zkoc381c2uw3x-stroke" fill="none" stroke-linecap="round" stroke-linejoin="round" stroke-miterlimit="4" stroke="#484848" stroke-width="4" stroke-opacity="1"><g><path d="M 69.909747 39.6509C 98.397147 34.4164 126.544047 29.7108 127.336847 20.2322C 127.811147 14.562 122.845347 11.6633 118.677347 10C 125.553947 12.281 140.902647 20.2322 140.902647 31.5084C 140.902647 48.3752 123.999347 56.8124 75.229247 65.242C 48.104047 69.9303 31.437347 72.7948 21.745547 72.035C 13.703447 71.4046 10.381047 66.9868 10.036847 61.629C 9.471347 52.8286 15.502447 48.4288 21.745547 47.0136C 29.357947 45.288 48.711847 43.546 69.909747 39.6509ZM 69.899947 39.628125C 98.699947 36.328125 128.199947 29.728125 127.299947 20.228125C 126.799947 14.528125 123.099947 10.528125 118.699947 10.028125C 125.899947 10.728125 141.499947 20.228125 140.899947 31.528125C 139.999947 48.328125 123.899947 56.128125 75.199947 65.228125C 48.199947 70.328125 31.399947 71.128125 21.699947 72.028125C 13.699947 72.828125 10.299947 67.028125 9.999947 61.628125C 9.499947 52.828125 15.699947 49.028125 21.699947 47.028125C 29.099947 44.528125 48.699947 43.328125 69.899947 39.628125"></path></g></g></g><g id="g-root-sy_1_cu_1_zkoc381c2uw3y-stroke" data-item-order="-48225" transform="translate(14.565521240234375, 98)"><g id="sy_1_cu_1_zkoc381c2uw3y-stroke" fill="none" stroke-linecap="round" stroke-linejoin="round" stroke-miterlimit="4" stroke="#484848" stroke-width="4" stroke-opacity="1"><g><path d="M 120.0108 29.210385C 122.9982 30.636385 127.4718 33.292385 127.3446 38.414185C 127.1963 44.388685 117.3187 48.153085 104.6598 51.344585C 104.3346 51.230585 102.9633 50.683785 102.6561 50.570685C 78.8756 41.626185 51.5585 39.244885 26.2368 35.204085C 24.7636 35.763885 21.9403 35.966885 20.221 35.763885C 15.9301 34.666285 10 31.373185 10 22.448585C 10 17.819185 13.6401 10.768285 21.6823 10.137885C 31.374 9.378085 48.067 11.794885 75.1922 16.483285C 90.003 19.043185 106.1882 22.819685 120.0108 29.210385ZM 120.0108 29.210385L 120.2583 29.324785M 119.963043 29.199985C 123.163043 30.199985 127.663043 33.299985 127.363043 38.399985C 127.063043 44.399985 117.663043 49.799985 104.663043 51.299985C 104.363043 51.399985 102.963043 50.799985 102.663043 50.599985C 91.563043 42.699985 75.863043 44.299985 62.263043 40.599985C 50.463043 37.399985 38.163043 35.799985 26.263043 35.199985C 24.863043 35.899985 21.963043 35.699985 20.263043 35.799985C 15.763043 35.799985 9.263043 31.299985 9.963043 22.399985C 10.363043 17.799985 13.663043 11.099985 21.663043 10.099985C 31.363043 8.999985 48.063043 11.799985 75.163043 16.499985C 89.963043 19.099985 106.163043 22.899985 119.963043 29.199985M 119.963043 29.199985C 120.063043 29.199985 120.163043 29.299985 120.263043 29.299985"></path></g></g></g><g id="g-root-sy_1_Ellipse_v4utys1c2uww7-stroke" data-item-order="-48223" transform="translate(14.528900146484375, 98.178955078125)"><g id="sy_1_Ellipse_v4utys1c2uww7-stroke" fill="none" stroke-linecap="round" stroke-linejoin="round" stroke-miterlimit="4" stroke="#484848" stroke-width="4" stroke-opacity="1"><g><path d="M 10 22.846066C 9.998156 29.94019 15.498816 35.692136 22.284863 35.692136C 29.070909 35.692136 34.57157 29.94019 34.569726 22.846066C 34.57157 15.751942 29.070909 9.999996 22.284863 9.999996C 15.498816 9.999996 9.998156 15.751942 10 22.846066M 9.999668 22.821037C 9.999668 29.921037 15.499668 35.221037 22.299668 35.721037C 29.099668 36.221037 33.799668 29.921037 34.599668 22.821037C 35.299668 15.821037 28.799668 8.121037 22.299668 10.021037C 15.799668 11.921037 8.899668 15.821037 9.999668 22.821037"></path></g></g></g><g id="g-root-tx_credenti_1lsebsk1c2uz2b-stroke" data-item-order="0" transform="translate(230.528564453125, 242)"></g><g id="g-root-ic_appr_1uua2wk1c2z4st-stroke" data-item-order="0" transform="translate(182.528564453125, 236)"><g id="ic_appr_1uua2wk1c2z4st-stroke" fill="none" stroke-linecap="round" stroke-linejoin="round" stroke-miterlimit="4" stroke="#484848" stroke-width="2" stroke-opacity="1"><g><path d="M 26.125 26.125C 26.332108 26.125 26.5 26.292892 26.5 26.5C 26.5 26.707108 26.332108 26.875 26.125 26.875C 25.917892 26.875 25.75 26.707108 25.75 26.5C 25.75 26.292892 25.917892 26.125 26.125 26.125M 19 26.125C 19.207108 26.125 19.375 26.292892 19.375 26.5C 19.375 26.707108 19.207108 26.875 19 26.875C 18.792892 26.875 18.625 26.707108 18.625 26.5C 18.625 26.292892 18.792892 26.125 19 26.125M 27.25 36.25C 27.250002 41.220566 31.279438 45.25 36.25 45.25C 41.220566 45.25 45.25 41.220566 45.25 36.25C 45.25 31.279438 41.220566 27.250002 36.25 27.250002C 31.279438 27.250002 27.250002 31.279438 27.250002 36.25ZM 40.261002 33.633999L 35.9035 39.443501C 35.707386 39.70401 35.408134 39.866913 35.082893 39.890205C 34.757648 39.913498 34.438232 39.794907 34.207001 39.564999L 31.956999 37.314999M 24.25 33.25L 13.75 33.25C 12.093145 33.25 10.75 31.906855 10.75 30.25L 10.75 22.75C 10.75 21.093145 12.093145 19.75 13.75 19.75L 42.25 19.75C 43.906857 19.75 45.25 21.093145 45.25 22.75L 45.25 28M 26.200001 26.200001C 26.349998 26.200001 26.5 26.349998 26.5 26.5C 26.5 26.650002 26.349998 26.799999 26.200001 26.950001C 25.900002 26.950001 25.75 26.650002 25.75 26.5C 25.75 26.349998 25.900002 26.200001 26.200001 26.200001M 19 26.200001C 19.15 26.049999 19.450001 26.349998 19.450001 26.5C 19.299999 26.650002 19.15 26.799999 19 26.950001C 18.85 26.950001 18.700001 26.650002 18.700001 26.5C 18.549999 26.349998 18.85 26.200001 19 26.200001M 27.25 36.25C 27.849998 41.199997 31.299999 45.25 36.25 45.25C 41.199997 45.25 43.75 41.050003 45.25 36.25C 46.75 31.450001 41.199997 27.400002 36.25 27.25C 31.299999 27.099998 28.150002 31.450001 27.25 36.25M 40.300003 33.700001C 38.5 35.349998 37.449997 37.599998 35.949997 39.400002C 35.650002 39.699997 35.349998 39.849998 35.050003 39.849998C 34.75 39.849998 34.449997 39.699997 34.150002 39.550003C 33.25 39.099998 32.5 38.199997 31.900002 37.300003M 24.25 33.25C 20.799999 33.549999 17.200001 33.400002 13.75 33.25C 12.1 33.099998 10.75 31.900002 10.75 30.25C 10.9 27.700001 10.75 25.299999 10.75 22.75C 10.75 21.1 12.1 19.6 13.75 19.75C 23.200001 20.200001 32.950001 17.799999 42.25 19.75C 43.900002 20.049999 45.550003 21.1 45.25 22.75C 44.949997 24.549999 44.949997 26.349998 45.25 28"></path></g></g></g><g id="g-root-tx_phpcheck_18hkaic1c2uxhg-stroke" data-item-order="0" transform="translate(230.528564453125, 182)"></g><g id="g-root-ic_1_1uo1c1g1c2xpts-stroke" data-item-order="0" transform="translate(182.528564453125, 296)"><g id="ic_1_1uo1c1g1c2xpts-stroke" fill="none" stroke-linecap="round" stroke-linejoin="round" stroke-miterlimit="4" stroke="#484848" stroke-width="2" stroke-opacity="1"><g><path d="M 12.25 10.756L 43.75 10.756C 43.75 10.756 45.25 10.756 45.25 12.256L 45.25 43.756001C 45.25 43.756001 45.25 45.256001 43.75 45.256001L 12.25 45.256001C 12.25 45.256001 10.75 45.256001 10.75 43.756001L 10.75 12.256C 10.75 12.256 10.75 10.756 12.25 10.756M 40.75 30.25C 40.75 31.906855 39.406857 33.25 37.75 33.25L 34.75 33.25L 34.75 27.25L 37.75 27.25C 39.406857 27.25 40.75 28.593145 40.75 30.25ZM 34.75 39.256001L 34.75 33.256001M 22.75 30.25C 22.75 31.906855 21.406855 33.25 19.75 33.25L 16.75 33.25L 16.75 27.25L 19.75 27.25C 21.406855 27.25 22.75 28.593145 22.75 30.25ZM 16.75 39.256001L 16.75 33.256001M 31.75 27.256001L 31.75 39.256001M 25.75 39.256001L 25.75 27.256001M 25.75 33.256001L 31.75 33.256001M 12.25 10.75C 22.75 10.9 33.400002 9.55 43.75 10.75C 43.75 10.75 45.849998 10.9 45.25 12.25C 41.5 22.150002 45.099998 33.25 45.25 43.75C 45.25 43.75 45.25 45.099998 43.75 45.25C 33.25 46.449997 22.75 45.400002 12.25 45.25C 12.25 45.25 10.45 45.25 10.75 43.75C 12.4 33.400002 13.15 22.450001 10.75 12.25C 10.75 12.25 10.75 10.45 12.25 10.75M 40.75 30.25C 41.199997 31.900002 39.400002 33.25 37.75 33.25C 36.699997 33.25 35.650002 32.950001 34.75 33.25C 34.150002 31.299999 34.900002 29.200001 34.75 27.25C 35.800003 27.099998 36.849998 27.400002 37.75 27.25C 39.400002 26.950001 40.150002 28.75 40.75 30.25M 34.75 39.25C 35.199997 37.300003 35.199997 35.199997 34.75 33.25M 22.75 30.25C 23.049999 31.900002 21.4 32.950001 19.75 33.25C 18.700001 33.400002 17.799999 33.25 16.75 33.25C 16.75 31.299999 16.6 29.200001 16.75 27.25C 17.799999 27.25 18.700001 27.099998 19.75 27.25C 21.4 27.400002 22.150002 28.75 22.75 30.25M 16.75 39.25C 17.200001 37.300003 17.200001 35.199997 16.75 33.25M 31.75 27.25C 31.150002 31.150002 30.400002 35.5 31.75 39.25M 25.75 39.25C 25.450001 35.199997 25.75 31.299999 25.75 27.25M 25.75 33.25C 27.700001 34 29.799999 33.700001 31.75 33.25"></path></g></g></g><g id="g-root-tx_phpstart_1q87tx01c2uya2-stroke" data-item-order="0" transform="translate(230.528564453125, 302)"></g><g id="g-root-ic_php_1lrrupg1c30lc9-stroke" data-item-order="0" transform="translate(182.528564453125, 176)"><g id="ic_php_1lrrupg1c30lc9-stroke" fill="none" stroke-linecap="round" stroke-linejoin="round" stroke-miterlimit="4" stroke="#484848" stroke-width="2" stroke-opacity="1"><g><path d="M 15.25 32.5C 15.25 39.54163 20.95837 45.25 28 45.25C 35.04163 45.25 40.75 39.54163 40.75 32.5C 40.75 25.45837 35.04163 19.75 28 19.75C 20.95837 19.75 15.25 25.45837 15.25 32.5M 35.073997 21.892L 23.5 10.75M 28 26.5L 34 32.5L 28 38.5M 34 32.5L 22.75 32.5M 15.25 32.5C 14.05 39.400002 20.950001 45.25 28 45.25C 35.050003 45.25 39.849998 39.400002 40.75 32.5C 41.650002 25.450001 34.900002 20.799999 28 19.75C 21.1 18.700001 14.95 25.450001 15.25 32.5M 35.050003 21.85C 32.049999 17.5 27.25 14.5 23.5 10.75M 28 26.5C 29.950001 28.599998 32.049999 30.400002 34 32.5C 32.049999 34.599998 30.400002 36.849998 28 38.5M 34 32.5C 30.25 32.200001 26.5 32.049999 22.75 32.5"></path></g></g></g><g id="g-root-tx_userente_zlxa9g1c2uya5-stroke" data-item-order="0" transform="translate(230.528564453125, 122)"></g><g id="g-root-ic_stac_4ikab81c2wb2f-stroke" data-item-order="0" transform="translate(182.528564453125, 356)"><g id="ic_stac_4ikab81c2wb2f-stroke" fill="none" stroke-linecap="round" stroke-linejoin="round" stroke-miterlimit="4" stroke="#484848" stroke-width="2" stroke-opacity="1"><g><path d="M 27.924999 31.299551C 29.747349 31.299551 31.22485 29.822201 31.22485 27.999849C 31.22485 26.177349 29.747349 24.700075 27.924999 24.700075C 26.102499 24.700075 24.625179 26.177349 24.625179 27.999849C 24.625179 29.822201 26.102499 31.299551 27.924999 31.299551ZM 21.174925 40.449997C 21.174925 36.699997 24.174925 33.700001 27.924999 33.700001C 31.674999 33.700001 34.675003 36.699997 34.675003 40.449997L 21.174925 40.449997ZM 40.375 44.949997L 15.625 44.949997C 13.075 44.949997 11.125 43 11.125 40.449997L 11.125 24.700075C 11.125 22.150074 13.075 20.200075 15.625 20.200075L 40.375 20.200075C 42.925003 20.200075 44.875 22.150074 44.875 24.700075L 44.875 40.449997C 44.875 42.849998 42.775002 44.949997 40.375 44.949997ZM 15.47503 15.549925L 40.375 15.549925M 15.47503 15.549925L 40.375 15.549925M 19.225031 11.049927L 36.625 11.049927M 28 31.299999C 29.650002 30.849998 31.150002 29.799999 31.150002 28C 31.299999 26.200001 29.650002 25.299999 28 24.700001C 26.200001 24.099998 24.549999 26.200001 24.700001 28C 24.700001 29.799999 26.049999 31.299999 28 31.299999M 21.1 40.449997C 21.1 36.699997 24.25 33.25 28 33.700001C 31.599998 34.150002 33.25 37 34.75 40.449997C 30.25 40 25.599998 40 21.1 40.449997M 40.449997 44.949997C 32.200001 45.25 23.799999 45.25 15.7 44.949997C 13.15 44.800003 10.3 42.849998 11.2 40.449997C 12.85 35.5 11.8 29.950001 11.2 24.700001C 10.75 22.150002 13.15 19.6 15.7 20.200001C 23.650002 22 32.200001 19.299999 40.449997 20.200001C 42.849998 20.5 44.800003 22.150002 44.949997 24.700001C 45.099998 29.950001 44.650002 35.199997 44.949997 40.449997C 44.949997 42.849998 42.550003 44.050003 40.449997 44.949997M 15.55 15.55C 23.200001 18.549999 32.049999 15.1 40.449997 15.55M 15.55 15.55C 23.799999 16 32.049999 15.55 40.449997 15.55M 19.299999 11.05C 25 11.5 30.849998 10.9 36.699997 11.05"></path></g></g></g><g id="g-root-tx_useridst_4ikab81c2uww9-stroke" data-item-order="0" transform="translate(230.528564453125, 362)"></g><g id="g-root-ic_key_18it8ok1c30irp-stroke" data-item-order="0" transform="translate(182.528564453125, 116)"><g id="ic_key_18it8ok1c30irp-stroke" fill="none" stroke-linecap="round" stroke-linejoin="round" stroke-miterlimit="4" stroke="#484848" stroke-width="2" stroke-opacity="1"><g><path d="M 34.607502 40.3465C 33.875217 41.07859 32.688122 41.078487 31.955967 40.346268C 31.22381 39.614048 31.22381 38.426952 31.955967 37.694733C 32.688122 36.962517 33.875217 36.96241 34.607502 37.6945C 35.339138 38.427116 35.339138 39.613884 34.607502 40.3465ZM 10 10M 38.571999 36.912998L 45.029503 30.470501C 45.17062 30.329819 45.249958 30.138763 45.25 29.939501L 45.25 28C 45.25 27.585787 44.914215 27.25 44.5 27.25L 42.550003 27.25C 42.35804 27.249941 42.173363 27.32349 42.034 27.4555L 35.390499 33.731499C 32.746239 32.611244 29.678932 33.521755 28.074163 35.903313C 26.469395 38.284866 26.777178 41.46962 28.808308 43.499794C 30.839437 45.529968 34.024338 45.83625 36.405136 44.230362C 38.785934 42.624466 39.695004 39.556732 38.573502 36.912998ZM 28.900002 23.650002C 28.061413 22.272871 27.644262 20.680399 27.700001 19.069L 27.700001 17.200001C 27.700001 13.637764 24.812239 10.75 21.25 10.75C 17.687763 10.75 14.8 13.637764 14.8 17.200001L 14.8 19.067501C 14.855242 20.679316 14.438138 22.272129 13.599999 23.65M 14.8 18.259001C 17.276972 18.256786 19.63076 17.178421 21.25 15.304001C 22.869118 17.178585 25.222984 18.256985 27.700001 18.259001M 26.931999 18.224499C 26.792435 21.260317 24.290524 23.649847 21.251499 23.649847C 18.212477 23.649847 15.710567 21.260317 15.571 18.224499M 22.75 36.25L 10.75 36.25C 10.749927 31.835918 13.51055 27.893091 17.658365 26.383207C 21.806181 24.873323 26.45545 26.118813 29.293001 29.500002M 34.599998 40.300003C 33.849998 41.050003 32.650002 41.199997 31.900002 40.300003C 31.299999 39.550003 31.150002 38.5 31.900002 37.75C 32.650002 37 33.849998 37 34.599998 37.75C 35.5 38.349998 35.5 39.699997 34.599998 40.300003M 10 10M 38.5 36.849998C 40.449997 34.599998 42.849998 32.650002 45.099998 30.400002C 45.099998 30.400002 45.25 30.099998 45.25 29.950001C 45.400002 29.349998 45.099998 28.599998 45.25 28C 45.400002 27.549999 44.949997 27.25 44.5 27.25C 43.900002 27.25 43.150002 27.099998 42.550003 27.25C 42.400002 27.25 42.099998 27.25 42.099998 27.400002C 40.599998 30.099998 37.75 31.75 35.349998 33.700001C 32.799999 32.650002 29.650002 33.549999 28 35.949997C 26.5 38.349998 27.549999 40.900002 28.75 43.449997C 30.099998 46.150002 34.449997 46.300003 36.400002 44.199997C 38.349998 42.099998 40.449997 39.099998 38.5 36.849998M 28.900002 23.650002C 28.450001 22.150002 27.849998 20.65 27.700001 19C 27.549999 18.549999 27.849998 17.799999 27.700001 17.200001C 26.950001 13.75 24.700001 11.95 21.25 10.75C 17.950001 9.55 14.35 13.75 14.8 17.200001C 14.95 17.799999 14.65 18.4 14.8 19C 14.95 20.65 14.2 22.150002 13.6 23.650002M 14.8 18.25C 17.200001 18.1 19.9 17.35 21.25 15.25C 23.049999 17.049999 25.299999 18.700001 27.700001 18.25M 26.950001 18.25C 27.700001 21.25 24.099998 22.599998 21.25 23.650002C 18.4 24.700001 16.15 21.25 15.55 18.25M 22.75 36.25C 19 34.75 14.65 35.5 10.75 36.25C 10.3 31.900002 13.3 27.400002 17.65 26.349998C 22 25.450001 26.049999 26.5 29.349998 29.5"></path></g></g></g><g id="g-root-tx_sessionc_qp1buc1c2uxog-stroke" data-item-order="0" transform="translate(230.528564453125, 422)"></g><g id="g-root-ic_page_mb38z81c2uwpb-stroke" data-item-order="0" transform="translate(182.528564453125, 416)"><g id="ic_page_mb38z81c2uwpb-stroke" fill="none" stroke-linecap="round" stroke-linejoin="round" stroke-miterlimit="4" stroke="#484848" stroke-width="2" stroke-opacity="1"><g><path d="M 28 40.375L 12.25 40.375C 11.421573 40.375 10.75 39.703426 10.75 38.875L 10.75 14.875C 10.75 14.046573 11.421573 13.375 12.25 13.375L 40.75 13.375C 41.578426 13.375 42.25 14.046573 42.25 14.875L 42.25 25.224998M 13.75 26.125L 15.25 27.625L 19.75 23.125M 22 26.875L 27.25 26.875M 24.25 23.875L 28.75 23.875M 10.75 19.375L 42.25 19.375M 28.75 32.168499C 28.75 35.920444 31.791553 38.961998 35.543499 38.961998C 39.295444 38.961998 42.336998 35.920444 42.336998 32.168499C 42.336998 28.416553 39.295444 25.375 35.543499 25.375C 31.791553 25.375 28.75 28.416553 28.75 32.168499ZM 45.25 41.875L 40.378002 37.003002M 28 40.449997C 23.049999 38.5 17.049999 38.349998 12.25 40.449997C 11.5 40.75 10.75 39.699997 10.75 38.949997C 11.35 30.849998 9.4 22.75 10.75 14.95C 10.9 14.05 11.35 13.45 12.25 13.45C 21.700001 13.15 31.299999 14.05 40.75 13.45C 41.650002 13.3 42.099998 14.05 42.25 14.95C 42.699997 18.25 43.150002 21.85 42.25 25.299999M 13.75 26.200001C 14.2 26.650002 14.95 26.950001 15.25 27.700001C 17.200001 26.650002 18.1 24.549999 19.75 23.200001M 22 26.950001C 23.799999 26.799999 25.599998 27.099998 27.25 26.950001M 24.25 23.950001C 25.75 23.950001 27.25 23.799999 28.75 23.950001M 10.75 19.450001C 21.25 19.450001 31.900002 20.799999 42.25 19.450001M 28.75 32.200001C 28.900002 35.949997 31.75 39.099998 35.5 38.949997C 39.25 38.800003 42.099998 35.949997 42.400002 32.200001C 42.550003 28.450001 39.25 25.150002 35.5 25.299999C 31.75 25.599998 28.599998 28.450001 28.75 32.200001M 45.25 41.949997C 44.050003 39.849998 41.5 39.099998 40.449997 37"></path></g></g></g><g id="g-root-tx_userauth_mb38z81c2uwpa-stroke" data-item-order="0" transform="translate(122.528564453125, 38)"></g></g></g><path id="w5vbyc19uslc7" d="M65.283 12.757a.35.35 0 0 0 .584.157l5.203-5.141-6.183 3.523.396 1.461zm-2.216-11.7a.35.35 0 0 0-.522.305v3.111l3.276-1.868-2.754-1.548zm3.728 2.105l-4.25 2.421v2.445l6.391-3.644-2.141-1.222zm4.708 3.303a.35.35 0 0 0 0-.609l-1.592-.9-7.365 4.199v1.782a.35.35 0 0 0 .523.305l8.435-4.777z M44.542 2.513c0-.433.355-.783.792-.783s.792.35.792.783-.355.783-.792.783-.792-.35-.792-.783zm59.171 0c0-.433.355-.783.792-.783s.792.35.792.783-.355.783-.792.783-.792-.35-.792-.783zm-85.951 7.636h-1.27v-.487c-.276.201-.864.609-1.881.609-1.202 0-2.274-.794-2.137-2.078.118-1.106 1.153-1.584 1.848-1.727l2.17-.345c0-.539-.29-.956-1.064-1.006s-1.21.305-1.571 1.017l-1.124-.605c1.218-2.631 5.029-1.764 5.029.414v4.207zm-1.27-2.86c.006.396-.062 1.112-.819 1.59-.587.37-1.841.299-1.903-.395-.049-.555.461-.791.906-.898l1.816-.297zm72.662 2.86h-1.27v-.487c-.276.201-.864.609-1.881.609-1.202 0-2.274-.794-2.137-2.078.118-1.106 1.153-1.584 1.848-1.727l2.17-.345c0-.539-.29-.956-1.064-1.006s-1.21.305-1.571 1.017l-1.124-.605c1.218-2.631 5.029-1.764 5.029.414v4.207zm-1.27-2.86c.006.396-.062 1.112-.82 1.59-.587.37-1.841.299-1.903-.395-.049-.555.461-.791.906-.898l1.816-.297zM99.096 10.149H97.85v-8.45h1.246v4.895l2.68-2.559h1.738l-2.633 2.535 2.715 3.578h-1.556l-2.077-2.707-.867.844v1.863zm6.053-6.114h-1.255v6.113h1.255V4.035zm-59.2 0h-1.255v6.113h1.255V4.035zm5.584 6.113V1.697h1.255v2.695c.361-.346 1-.485 1.47-.485 1.452 0 2.477 1.082 2.457 2.448v3.792h-1.27v-3.68c0-.408-.214-1.339-1.315-1.339-.968 0-1.342.756-1.342 1.339v3.681h-1.255zm-4.76-4.894V4.039h.621a.45.45 0 0 0 .45-.45v-.855h1.251v1.305h1.309v1.215h-1.309v3.109c0 .293.105.664.648.664.365 0 .531-.035.736-.07v1.137s-.361.113-.857.113c-1.398 0-1.777-1.051-1.777-1.788V5.254h-1.071zM36.528 4.039h-1.394l2.191 6.106h1.125l1.234-3.918 1.238 3.918h1.129l2.188-6.106h-1.383l-1.359 3.93-1.256-3.93h-1.124l-1.242 3.957-1.348-3.957zM26.212 7.141c-.02 1.566 1.187 3.129 3.223 3.129 1.566 0 2.383-.918 2.734-1.719L31.172 8c-.315.399-.801 1.094-1.738 1.094-1.145 0-1.825-.781-1.891-1.52h4.625c.074-.284.148-.995-.03-1.559-.336-1.064-1.221-2.102-2.839-2.102s-3.088 1.152-3.088 3.227zm1.363-.75h3.348c-.055-.43-.566-1.301-1.623-1.301a1.79 1.79 0 0 0-1.725 1.301zm-8.758.75c.038 1.758 1.277 3.133 3.145 3.133 1.074 0 1.723-.477 1.961-.672v.547h1.242V1.703h-1.258v2.888c-.414-.36-1.062-.68-1.93-.68-1.91 0-3.198 1.473-3.16 3.23zm1.309-.08c0 1.119.723 1.978 1.836 1.978a1.88 1.88 0 0 0 1.94-1.904c0-1.371-1.011-1.99-1.972-1.99s-1.805.798-1.805 1.916zm76.683-.028C96.771 5.275 95.532 3.9 93.664 3.9c-1.074 0-1.723.477-1.961.672v-.547h-1.242v8.22h1.258V9.583c.414.36 1.063.68 1.93.68 1.91 0 3.198-1.473 3.16-3.23zm-1.309.08c0-1.119-.723-1.978-1.836-1.978a1.88 1.88 0 0 0-1.94 1.904c0 1.371 1.011 1.99 1.972 1.99S95.5 8.231 95.5 7.113zM106.441 10.173V4.036h1.254v.382c.361-.346 1-.485 1.47-.485 1.452 0 2.477 1.082 2.457 2.448v3.792h-1.27V6.492c0-.408-.214-1.339-1.315-1.339-.969 0-1.342.756-1.342 1.339v3.681h-1.254zm-30.383-.021V1.824h1.084l4.215 5.777V1.824h1.32v8.328h-1.094l-4.207-5.796v5.796h-1.319zM5.24 10.149H4V2.377h1.014l2.664 3.597 2.654-3.592h1.03v7.766h-1.256V4.762L7.678 8.068 5.24 4.742v5.407z" transform="translate(17.319091796875, 491.2701416015625)" fill="#80808088" stroke="none"></path></svg>